<?xml version="1.0" encoding="utf-8"?>
<!-- Generator: Adobe Illustrator 22.0.1, SVG Export Plug-In . SVG Version: 6.00 Build 0)  -->
<svg version="1.1" xmlns="http://www.w3.org/2000/svg" xmlns:xlink="http://www.w3.org/1999/xlink" x="0px" y="0px"
	 viewBox="0 0 104.6 371.5" style="enable-background:new 0 0 104.6 371.5;" xml:space="preserve">
<style type="text/css">
	.st0{fill:#FFFFFF;}
	.st1{fill:#A0CD47;}
	.st2{fill:#A0CD47;stroke:#FFFFFF;stroke-width:0.3716;stroke-miterlimit:10;}
</style>
<g id="Layer_1">
	<g>
		<polyline class="st0" points="51,361.9 51,237.2 94.5,185.8 94.5,186 51,134.5 51,9.8 		"/>
		<path class="st1" d="M51,371.2c-5.1,0-9.3-4.2-9.3-9.3V237.2c0-2.2,0.8-4.3,2.2-6l38.3-45.3l-38.3-45.3c-1.4-1.7-2.2-3.8-2.2-6
			V9.8c0-5.1,4.2-9.3,9.3-9.3s9.3,4.2,9.3,9.3v121.3l40.2,47.6c2,1.7,3.2,4.3,3.2,7.1v0.2c0,2.8-1.2,5.3-3.2,7.1l-40.2,47.6v121.3
			C60.3,367,56.1,371.2,51,371.2z"/>
	</g>
</g>
<g id="Layer_2">
	<g>
		<path class="st2" d="M7.5,165h-4l1.2-7.6H3.6l0.5-3.2h1.1l0.5-3.2h4l-0.5,3.2h1.3l-0.5,3.2H8.8L7.5,165z"/>
		<path class="st2" d="M14.7,154.4c0.7-0.3,1.5-0.4,2.3-0.4c0.8,0,1.6,0.2,2.2,0.4c0.6,0.3,1.1,0.7,1.4,1.2c0.3,0.5,0.5,1.1,0.6,1.8
			c0.1,0.7,0.1,1.4,0,2.2c-0.1,0.8-0.3,1.5-0.7,2.2c-0.3,0.7-0.7,1.3-1.2,1.8c-0.5,0.5-1.1,0.9-1.8,1.2c-0.7,0.3-1.5,0.4-2.3,0.4
			c-0.8,0-1.6-0.2-2.2-0.4c-0.6-0.3-1.1-0.7-1.4-1.2c-0.3-0.5-0.5-1.1-0.6-1.8c-0.1-0.7-0.1-1.4,0.1-2.2c0.1-0.8,0.3-1.5,0.6-2.2
			c0.3-0.7,0.7-1.3,1.2-1.8C13.4,155.2,13.9,154.7,14.7,154.4z M17.2,159.6c0.3-1.7,0-2.6-0.7-2.6s-1.2,0.9-1.5,2.6
			c-0.3,1.7,0,2.6,0.7,2.6C16.4,162.2,16.9,161.4,17.2,159.6z"/>
		<path class="st2" d="M6.6,189.5h-4l2.6-16.3h4L6.6,189.5z"/>
		<path class="st2" d="M12.8,179c0.7-0.3,1.5-0.4,2.3-0.4c0.8,0,1.6,0.1,2.2,0.4c0.6,0.3,1.1,0.7,1.4,1.2c0.3,0.5,0.5,1.1,0.6,1.8
			c0.1,0.7,0.1,1.4,0,2.2c-0.1,0.8-0.3,1.5-0.7,2.2c-0.3,0.7-0.7,1.3-1.2,1.8c-0.5,0.5-1.1,0.9-1.8,1.2c-0.7,0.3-1.5,0.4-2.3,0.4
			c-0.8,0-1.6-0.2-2.2-0.4c-0.6-0.3-1.1-0.7-1.4-1.2c-0.3-0.5-0.5-1.1-0.6-1.8c-0.1-0.7-0.1-1.4,0.1-2.2c0.1-0.8,0.3-1.5,0.6-2.2
			c0.3-0.7,0.7-1.3,1.2-1.8C11.5,179.7,12.1,179.3,12.8,179z M15.3,184.1c0.3-1.7,0-2.6-0.7-2.6s-1.2,0.9-1.5,2.6
			c-0.3,1.7,0,2.6,0.7,2.6C14.5,186.8,15,185.9,15.3,184.1z"/>
		<path class="st2" d="M24.1,179c0.7-0.3,1.5-0.4,2.3-0.4c0.8,0,1.6,0.1,2.2,0.4c0.6,0.3,1.1,0.7,1.4,1.2c0.3,0.5,0.5,1.1,0.6,1.8
			c0.1,0.7,0.1,1.4,0,2.2c-0.1,0.8-0.3,1.5-0.7,2.2c-0.3,0.7-0.7,1.3-1.2,1.8c-0.5,0.5-1.1,0.9-1.8,1.2c-0.7,0.3-1.5,0.4-2.3,0.4
			c-0.8,0-1.6-0.2-2.2-0.4c-0.6-0.3-1.1-0.7-1.4-1.2c-0.3-0.5-0.5-1.1-0.6-1.8c-0.1-0.7-0.1-1.4,0.1-2.2c0.1-0.8,0.3-1.5,0.6-2.2
			c0.3-0.7,0.7-1.3,1.2-1.8C22.8,179.7,23.4,179.3,24.1,179z M26.6,184.1c0.3-1.7,0-2.6-0.7-2.6s-1.2,0.9-1.5,2.6
			c-0.3,1.7,0,2.6,0.7,2.6S26.3,185.9,26.6,184.1z"/>
		<path class="st2" d="M37.3,189.5l-1-5.4h0l-0.9,5.4h-4l2.6-16.3h4l-1.6,10.4h0l2.7-4.9h4.3l-3.5,4.9l2,5.8H37.3z"/>
		<path class="st2" d="M13.8,203.3l-1.7,10.8h-4l0.5-1.8l0,0c-0.4,0.6-0.8,1.1-1.3,1.5c-0.5,0.4-1.1,0.6-1.7,0.6
			c-0.5,0-1-0.1-1.3-0.4c-0.4-0.3-0.6-0.6-0.8-1c-0.2-0.4-0.3-0.9-0.4-1.4c-0.1-0.5-0.1-1-0.1-1.5c0-0.5,0.1-0.9,0.2-1.4
			c0.1-0.5,0.2-0.9,0.3-1.4c0.1-0.5,0.3-1,0.6-1.5c0.2-0.5,0.5-1,0.8-1.3c0.3-0.4,0.7-0.7,1.1-1c0.5-0.3,0.9-0.4,1.5-0.4
			c1.1,0,1.9,0.6,2.3,1.9l0.1,0l0.1-1.7H13.8z M7.6,211c0.4,0,0.8-0.3,1-1c0.1-0.4,0.3-0.9,0.3-1.5c0.1-0.6,0.1-1,0.1-1.3
			c0-0.6-0.2-0.9-0.6-0.9c-0.4,0-0.7,0.4-1,1.1c-0.1,0.4-0.2,0.9-0.3,1.6C7,209.5,7,209.9,7,210.2C7.1,210.7,7.2,211,7.6,211z"/>
		<path class="st2" d="M19,214.1h-4l1.2-7.6H15l0.5-3.2h1.2l0.2-1.2c0.2-1.4,0.7-2.6,1.4-3.3c0.7-0.8,1.6-1.2,2.8-1.2
			c0.6,0,1.3,0.1,1.9,0.3l-0.6,3.7c-0.3-0.2-0.5-0.4-0.8-0.4c-0.3,0-0.5,0.1-0.6,0.4c-0.1,0.2-0.2,0.7-0.3,1.2l-0.1,0.5h1.4
			l-0.5,3.2h-1.4L19,214.1z"/>
		<path class="st2" d="M27,214.1h-4l1.2-7.6h-1.1l0.5-3.2h1.1l0.5-3.2h4l-0.5,3.2H30l-0.5,3.2h-1.3L27,214.1z"/>
		<path class="st2" d="M36,210.4H40c-0.4,1.2-1.1,2.2-2.1,2.9c-1,0.7-2.1,1-3.3,1c-1.6,0-2.8-0.5-3.5-1.5c-0.7-1-0.9-2.3-0.7-3.9
			c0.2-1,0.5-2,1-2.9c0.5-0.9,1.2-1.6,2.1-2.1c0.9-0.5,1.8-0.8,2.9-0.8c1.6,0,2.7,0.6,3.4,1.8c0.3,0.4,0.4,1,0.5,1.5
			c0.1,0.6,0.1,1.1,0.1,1.5c0,0.5-0.1,1-0.2,1.7h-5.9c-0.2,1.1,0,1.7,0.7,1.7c0.2,0,0.4-0.1,0.6-0.2C35.8,210.8,36,210.6,36,210.4z
			 M34.7,207.3h1.9c0-0.4,0-0.7-0.1-1c-0.1-0.3-0.3-0.4-0.6-0.4c-0.3,0-0.6,0.1-0.8,0.4C34.9,206.7,34.7,207,34.7,207.3z"/>
		<path class="st2" d="M49.8,203l-0.7,4.5c-0.5-0.3-0.8-0.4-1.1-0.4c-0.4,0-0.7,0.1-0.9,0.2c-0.3,0.2-0.5,0.4-0.6,0.6
			c-0.2,0.3-0.3,0.5-0.3,0.8c-0.1,0.3-0.1,0.6-0.2,0.9l-0.7,4.4h-4l1.7-10.8h4l-0.6,2.1l0,0c0.4-0.7,0.8-1.3,1.4-1.7
			C48.4,203.2,49.1,203,49.8,203z"/>
	</g>
</g>
</svg>
